# xmcd
#
# Track frame offsets:
#	150
#	17112
#	36434
#	53091
#	68280
#	86745
#	101622
#	124124
#	143238
#	164228
#	184055
#	207582
#	223396
#	240616
#	255663
#	269370
#	293092
#	311768
#	331096
#
# Disc length: 4694
#
# Revision: 2
# Processed by: cddbd v1.5.1PL0 Copyright (c) Steve Scherf et al.
# Submitted via: EasyCDDAExtractor 5.1.0
# Normalized: r1:DSETVAR1
#
DISCID=26125413
DTITLE=Various Artist - Kuschelrock 16 - CD 1
DYEAR=2002
DGENRE=Blues
TTITLE0=Shakira - Underneath Your Clothes
TTITLE1=Lenny Kravitz - Stillness Of Heart
TTITLE2=Faith Hill - There You'll Be
TTITLE3=Robbie Williams - Better Man
TTITLE4=Kate Winslet - What If
TTITLE5=Alicia Keys - Fallin'
TTITLE6=Oasis - Stop Crying Your Heart Out
TTITLE7=Plüsch - Heimweh
TTITLE8=Janet Jackson - Let's Wait Awhile
TTITLE9=Stevie Wonder - I Just Called To Say I Love You
TTITLE10=Darren Hayes - Isatiable
TTITLE11=Wonderwall - Just More
TTITLE12=Aerosmith - Lay It Down
TTITLE13=Chad Kroeger - Hero
TTITLE14=Watershed - Indigo Girl
TTITLE15=Lighthouse Family - I Wish I Knew How It Would Feel
TTITLE16=Phil Collins and Marilyn Martin - Separate Lives
TTITLE17=Captain and Tenille - Do That To Me One More Time
TTITLE18=Santana - Samba Pa Ti
EXTD=
EXTT0=
EXTT1=
EXTT2=
EXTT3=
EXTT4=
EXTT5=
EXTT6=
EXTT7=
EXTT8=
EXTT9=
EXTT10=
EXTT11=
EXTT12=
EXTT13=
EXTT14=
EXTT15=
EXTT16=
EXTT17=
EXTT18=
PLAYORDER=
